<svg preserveAspectRatio="none" overflow="visible" style="display: block;" width="20" height="20" viewBox="0 0 20 20" fill="none" xmlns="http://www.w3.org/2000/svg">
<g id="Frame 15" clip-path="url(#clip0_0_3656)">
<g clip-path="url(#paint0_angular_0_3656_clip_path)" data-figma-skip-parse="true"><g transform="matrix(-0.00342226 0.00666878 -0.0046911 -0.00240736 2.08158 5.65855)"><foreignObject x="-1727.45" y="-1727.45" width="3454.89" height="3454.89"><div xmlns="http://www.w3.org/1999/xhtml" style="background:conic-gradient(from 90deg,rgba(27, 211, 219, 1) 0deg,rgba(0, 255, 209, 1) 31.1538deg,rgba(255, 114, 63, 1) 103.846deg,rgba(122, 63, 255, 1) 252.692deg,rgba(27, 211, 219, 1) 360deg);height:100%;width:100%;opacity:1"></div></foreignObject></g></g><path id="Vector" d="M6.65217 5.63161L8.2636 4.59175L8.2636 4.59175L6.65217 5.63161ZM4.72476 9.38745L4.81959 11.3029L4.81959 11.3029L4.72476 9.38745ZM0.812739 -3.41759L-0.798694 -2.37773L5.04073 6.67146L6.65217 5.63161L8.2636 4.59175L2.42417 -4.45744L0.812739 -3.41759ZM6.65217 5.63161L5.04073 6.67146C5.25756 7.00747 5.02933 7.4522 4.62992 7.47198L4.72476 9.38745L4.81959 11.3029C8.16804 11.1371 10.0814 7.40872 8.2636 4.59175L6.65217 5.63161ZM4.72476 9.38745L4.62993 7.47198L-6.12661 8.0045L-6.03178 9.91997L-5.93695 11.8354L4.81959 11.3029L4.72476 9.38745Z" data-figma-gradient-fill="{&#34;type&#34;:&#34;GRADIENT_ANGULAR&#34;,&#34;stops&#34;:[{&#34;color&#34;:{&#34;r&#34;:0.0,&#34;g&#34;:1.0,&#34;b&#34;:0.81960785388946533,&#34;a&#34;:1.0},&#34;position&#34;:0.086538463830947876},{&#34;color&#34;:{&#34;r&#34;:1.0,&#34;g&#34;:0.44705882668495178,&#34;b&#34;:0.24705882370471954,&#34;a&#34;:1.0},&#34;position&#34;:0.28846153616905212},{&#34;color&#34;:{&#34;r&#34;:0.47843137383460999,&#34;g&#34;:0.24705882370471954,&#34;b&#34;:1.0,&#34;a&#34;:1.0},&#34;position&#34;:0.70192307233810425}],&#34;transform&#34;:{&#34;m00&#34;:-6.8445200920104980,&#34;m01&#34;:-9.3821964263916016,&#34;m02&#34;:10.194935798645020,&#34;m10&#34;:13.337554931640625,&#34;m11&#34;:-4.8147230148315430,&#34;m12&#34;:1.3971341848373413},&#34;opacity&#34;:1.0,&#34;blendMode&#34;:&#34;NORMAL&#34;,&#34;stopsVar&#34;:[{&#34;color&#34;:{&#34;r&#34;:0.0,&#34;g&#34;:1.0,&#34;b&#34;:0.81960785388946533,&#34;a&#34;:1.0},&#34;position&#34;:0.086538463830947876},{&#34;color&#34;:{&#34;r&#34;:1.0,&#34;g&#34;:0.44705882668495178,&#34;b&#34;:0.24705882370471954,&#34;a&#34;:1.0},&#34;position&#34;:0.28846153616905212},{&#34;color&#34;:{&#34;r&#34;:0.47843137383460999,&#34;g&#34;:0.24705882370471954,&#34;b&#34;:1.0,&#34;a&#34;:1.0},&#34;position&#34;:0.70192307233810425}],&#34;visible&#34;:true}"/>
<g clip-path="url(#paint1_angular_0_3656_clip_path)" data-figma-skip-parse="true"><g transform="matrix(0.00666878 0.00342226 0.00240736 -0.0046911 14.3416 2.08146)"><foreignObject x="-1727.45" y="-1727.45" width="3454.89" height="3454.89"><div xmlns="http://www.w3.org/1999/xhtml" style="background:conic-gradient(from 90deg,rgba(27, 211, 219, 1) 0deg,rgba(0, 255, 209, 1) 31.1538deg,rgba(255, 114, 63, 1) 103.846deg,rgba(122, 63, 255, 1) 252.692deg,rgba(27, 211, 219, 1) 360deg);height:100%;width:100%;opacity:1"></div></foreignObject></g></g><path id="Vector_2" d="M10.6127 4.72465L8.69723 4.81948L8.69723 4.81948L10.6127 4.72465ZM14.3685 6.65206L15.4084 8.26349L15.4084 8.26349L14.3685 6.65206ZM10.0802 -6.03189L11.9956 -6.12672L12.5282 4.62982L10.6127 4.72465L8.69723 4.81948L8.1647 -5.93706L10.0802 -6.03189ZM10.6127 4.72465L12.5282 4.62982C12.5479 5.02922 12.9927 5.25745 13.3287 5.04062L14.3685 6.65206L15.4084 8.26349C12.5914 10.0813 8.86301 8.16793 8.69723 4.81948L10.6127 4.72465ZM14.3685 6.65206L13.3287 5.04063L22.3779 -0.798807L23.4177 0.812625L24.4576 2.42406L15.4084 8.26349L14.3685 6.65206Z" data-figma-gradient-fill="{&#34;type&#34;:&#34;GRADIENT_ANGULAR&#34;,&#34;stops&#34;:[{&#34;color&#34;:{&#34;r&#34;:0.0,&#34;g&#34;:1.0,&#34;b&#34;:0.81960785388946533,&#34;a&#34;:1.0},&#34;position&#34;:0.086538463830947876},{&#34;color&#34;:{&#34;r&#34;:1.0,&#34;g&#34;:0.44705882668495178,&#34;b&#34;:0.24705882370471954,&#34;a&#34;:1.0},&#34;position&#34;:0.28846153616905212},{&#34;color&#34;:{&#34;r&#34;:0.47843137383460999,&#34;g&#34;:0.24705882370471954,&#34;b&#34;:1.0,&#34;a&#34;:1.0},&#34;position&#34;:0.70192307233810425}],&#34;transform&#34;:{&#34;m00&#34;:13.337555885314941,&#34;m01&#34;:4.8147220611572266,&#34;m02&#34;:5.2654447555541992,&#34;m10&#34;:6.8445181846618652,&#34;m11&#34;:-9.3821973800659180,&#34;m12&#34;:3.3503034114837646},&#34;opacity&#34;:1.0,&#34;blendMode&#34;:&#34;NORMAL&#34;,&#34;stopsVar&#34;:[{&#34;color&#34;:{&#34;r&#34;:0.0,&#34;g&#34;:1.0,&#34;b&#34;:0.81960785388946533,&#34;a&#34;:1.0},&#34;position&#34;:0.086538463830947876},{&#34;color&#34;:{&#34;r&#34;:1.0,&#34;g&#34;:0.44705882668495178,&#34;b&#34;:0.24705882370471954,&#34;a&#34;:1.0},&#34;position&#34;:0.28846153616905212},{&#34;color&#34;:{&#34;r&#34;:0.47843137383460999,&#34;g&#34;:0.24705882370471954,&#34;b&#34;:1.0,&#34;a&#34;:1.0},&#34;position&#34;:0.70192307233810425}],&#34;visible&#34;:true}"/>
<g clip-path="url(#paint2_angular_0_3656_clip_path)" data-figma-skip-parse="true"><g transform="matrix(0.00342226 -0.00666878 0.0046911 0.00240736 17.9186 14.3415)"><foreignObject x="-1727.45" y="-1727.45" width="3454.89" height="3454.89"><div xmlns="http://www.w3.org/1999/xhtml" style="background:conic-gradient(from 90deg,rgba(27, 211, 219, 1) 0deg,rgba(0, 255, 209, 1) 31.1538deg,rgba(255, 114, 63, 1) 103.846deg,rgba(122, 63, 255, 1) 252.692deg,rgba(27, 211, 219, 1) 360deg);height:100%;width:100%;opacity:1"></div></foreignObject></g></g><path id="Vector_3" d="M13.348 14.3684L11.7366 15.4083L11.7366 15.4083L13.348 14.3684ZM15.2754 10.6126L15.1806 8.69709L15.1806 8.6971L15.2754 10.6126ZM19.1875 23.4176L20.7989 22.3777L14.9595 13.3285L13.348 14.3684L11.7366 15.4083L17.576 24.4575L19.1875 23.4176ZM13.348 14.3684L14.9595 13.3286C14.7426 12.9925 14.9709 12.5478 15.3703 12.528L15.2754 10.6126L15.1806 8.6971C11.8322 8.86287 9.91882 12.5913 11.7366 15.4083L13.348 14.3684ZM15.2754 10.6126L15.3703 12.528L26.1268 11.9955L26.032 10.08L25.9371 8.16458L15.1806 8.69709L15.2754 10.6126Z" data-figma-gradient-fill="{&#34;type&#34;:&#34;GRADIENT_ANGULAR&#34;,&#34;stops&#34;:[{&#34;color&#34;:{&#34;r&#34;:0.0,&#34;g&#34;:1.0,&#34;b&#34;:0.81960785388946533,&#34;a&#34;:1.0},&#34;position&#34;:0.086538463830947876},{&#34;color&#34;:{&#34;r&#34;:1.0,&#34;g&#34;:0.44705882668495178,&#34;b&#34;:0.24705882370471954,&#34;a&#34;:1.0},&#34;position&#34;:0.28846153616905212},{&#34;color&#34;:{&#34;r&#34;:0.47843137383460999,&#34;g&#34;:0.24705882370471954,&#34;b&#34;:1.0,&#34;a&#34;:1.0},&#34;position&#34;:0.70192307233810425}],&#34;transform&#34;:{&#34;m00&#34;:6.8445200920104980,&#34;m01&#34;:9.3821964263916016,&#34;m02&#34;:9.8052616119384766,&#34;m10&#34;:-13.337554931640625,&#34;m11&#34;:4.8147230148315430,&#34;m12&#34;:18.602876663208008},&#34;opacity&#34;:1.0,&#34;blendMode&#34;:&#34;NORMAL&#34;,&#34;stopsVar&#34;:[{&#34;color&#34;:{&#34;r&#34;:0.0,&#34;g&#34;:1.0,&#34;b&#34;:0.81960785388946533,&#34;a&#34;:1.0},&#34;position&#34;:0.086538463830947876},{&#34;color&#34;:{&#34;r&#34;:1.0,&#34;g&#34;:0.44705882668495178,&#34;b&#34;:0.24705882370471954,&#34;a&#34;:1.0},&#34;position&#34;:0.28846153616905212},{&#34;color&#34;:{&#34;r&#34;:0.47843137383460999,&#34;g&#34;:0.24705882370471954,&#34;b&#34;:1.0,&#34;a&#34;:1.0},&#34;position&#34;:0.70192307233810425}],&#34;visible&#34;:true}"/>
<g clip-path="url(#paint3_angular_0_3656_clip_path)" data-figma-skip-parse="true"><g transform="matrix(-0.00666878 -0.00342226 -0.00240736 0.0046911 5.65862 17.9185)"><foreignObject x="-1727.45" y="-1727.45" width="3454.89" height="3454.89"><div xmlns="http://www.w3.org/1999/xhtml" style="background:conic-gradient(from 90deg,rgba(27, 211, 219, 1) 0deg,rgba(0, 255, 209, 1) 31.1538deg,rgba(255, 114, 63, 1) 103.846deg,rgba(122, 63, 255, 1) 252.692deg,rgba(27, 211, 219, 1) 360deg);height:100%;width:100%;opacity:1"></div></foreignObject></g></g><path id="Vector_4" d="M9.3875 15.2753L11.303 15.1805L11.303 15.1805L9.3875 15.2753ZM5.63166 13.3479L4.5918 11.7365L4.59181 11.7365L5.63166 13.3479ZM9.92003 26.0319L8.00456 26.1267L7.47203 15.3702L9.3875 15.2753L11.303 15.1805L11.8355 25.9371L9.92003 26.0319ZM9.3875 15.2753L7.47203 15.3702C7.45226 14.9708 7.00752 14.7425 6.67151 14.9594L5.63166 13.3479L4.59181 11.7365C7.40877 9.91873 11.1372 11.8321 11.303 15.1805L9.3875 15.2753ZM5.63166 13.3479L6.67152 14.9594L-2.37767 20.7988L-3.41752 19.1874L-4.45738 17.5759L4.5918 11.7365L5.63166 13.3479Z" data-figma-gradient-fill="{&#34;type&#34;:&#34;GRADIENT_ANGULAR&#34;,&#34;stops&#34;:[{&#34;color&#34;:{&#34;r&#34;:0.0,&#34;g&#34;:1.0,&#34;b&#34;:0.81960785388946533,&#34;a&#34;:1.0},&#34;position&#34;:0.086538463830947876},{&#34;color&#34;:{&#34;r&#34;:1.0,&#34;g&#34;:0.44705882668495178,&#34;b&#34;:0.24705882370471954,&#34;a&#34;:1.0},&#34;position&#34;:0.28846153616905212},{&#34;color&#34;:{&#34;r&#34;:0.47843137383460999,&#34;g&#34;:0.24705882370471954,&#34;b&#34;:1.0,&#34;a&#34;:1.0},&#34;position&#34;:0.70192307233810425}],&#34;transform&#34;:{&#34;m00&#34;:-13.337555885314941,&#34;m01&#34;:-4.8147220611572266,&#34;m02&#34;:14.734754562377930,&#34;m10&#34;:-6.8445181846618652,&#34;m11&#34;:9.3821973800659180,&#34;m12&#34;:16.649694442749023},&#34;opacity&#34;:1.0,&#34;blendMode&#34;:&#34;NORMAL&#34;,&#34;stopsVar&#34;:[{&#34;color&#34;:{&#34;r&#34;:0.0,&#34;g&#34;:1.0,&#34;b&#34;:0.81960785388946533,&#34;a&#34;:1.0},&#34;position&#34;:0.086538463830947876},{&#34;color&#34;:{&#34;r&#34;:1.0,&#34;g&#34;:0.44705882668495178,&#34;b&#34;:0.24705882370471954,&#34;a&#34;:1.0},&#34;position&#34;:0.28846153616905212},{&#34;color&#34;:{&#34;r&#34;:0.47843137383460999,&#34;g&#34;:0.24705882370471954,&#34;b&#34;:1.0,&#34;a&#34;:1.0},&#34;position&#34;:0.70192307233810425}],&#34;visible&#34;:true}"/>
</g>
<defs>
<clipPath id="paint0_angular_0_3656_clip_path"><path id="Vector" d="M6.65217 5.63161L8.2636 4.59175L8.2636 4.59175L6.65217 5.63161ZM4.72476 9.38745L4.81959 11.3029L4.81959 11.3029L4.72476 9.38745ZM0.812739 -3.41759L-0.798694 -2.37773L5.04073 6.67146L6.65217 5.63161L8.2636 4.59175L2.42417 -4.45744L0.812739 -3.41759ZM6.65217 5.63161L5.04073 6.67146C5.25756 7.00747 5.02933 7.4522 4.62992 7.47198L4.72476 9.38745L4.81959 11.3029C8.16804 11.1371 10.0814 7.40872 8.2636 4.59175L6.65217 5.63161ZM4.72476 9.38745L4.62993 7.47198L-6.12661 8.0045L-6.03178 9.91997L-5.93695 11.8354L4.81959 11.3029L4.72476 9.38745Z"/></clipPath><clipPath id="paint1_angular_0_3656_clip_path"><path id="Vector_2" d="M10.6127 4.72465L8.69723 4.81948L8.69723 4.81948L10.6127 4.72465ZM14.3685 6.65206L15.4084 8.26349L15.4084 8.26349L14.3685 6.65206ZM10.0802 -6.03189L11.9956 -6.12672L12.5282 4.62982L10.6127 4.72465L8.69723 4.81948L8.1647 -5.93706L10.0802 -6.03189ZM10.6127 4.72465L12.5282 4.62982C12.5479 5.02922 12.9927 5.25745 13.3287 5.04062L14.3685 6.65206L15.4084 8.26349C12.5914 10.0813 8.86301 8.16793 8.69723 4.81948L10.6127 4.72465ZM14.3685 6.65206L13.3287 5.04063L22.3779 -0.798807L23.4177 0.812625L24.4576 2.42406L15.4084 8.26349L14.3685 6.65206Z"/></clipPath><clipPath id="paint2_angular_0_3656_clip_path"><path id="Vector_3" d="M13.348 14.3684L11.7366 15.4083L11.7366 15.4083L13.348 14.3684ZM15.2754 10.6126L15.1806 8.69709L15.1806 8.6971L15.2754 10.6126ZM19.1875 23.4176L20.7989 22.3777L14.9595 13.3285L13.348 14.3684L11.7366 15.4083L17.576 24.4575L19.1875 23.4176ZM13.348 14.3684L14.9595 13.3286C14.7426 12.9925 14.9709 12.5478 15.3703 12.528L15.2754 10.6126L15.1806 8.6971C11.8322 8.86287 9.91882 12.5913 11.7366 15.4083L13.348 14.3684ZM15.2754 10.6126L15.3703 12.528L26.1268 11.9955L26.032 10.08L25.9371 8.16458L15.1806 8.69709L15.2754 10.6126Z"/></clipPath><clipPath id="paint3_angular_0_3656_clip_path"><path id="Vector_4" d="M9.3875 15.2753L11.303 15.1805L11.303 15.1805L9.3875 15.2753ZM5.63166 13.3479L4.5918 11.7365L4.59181 11.7365L5.63166 13.3479ZM9.92003 26.0319L8.00456 26.1267L7.47203 15.3702L9.3875 15.2753L11.303 15.1805L11.8355 25.9371L9.92003 26.0319ZM9.3875 15.2753L7.47203 15.3702C7.45226 14.9708 7.00752 14.7425 6.67151 14.9594L5.63166 13.3479L4.59181 11.7365C7.40877 9.91873 11.1372 11.8321 11.303 15.1805L9.3875 15.2753ZM5.63166 13.3479L6.67152 14.9594L-2.37767 20.7988L-3.41752 19.1874L-4.45738 17.5759L4.5918 11.7365L5.63166 13.3479Z"/></clipPath><clipPath id="clip0_0_3656">
<rect width="20" height="20" fill="white"/>
</clipPath>
</defs>
</svg>
